<?xml version="1.0" encoding="UTF-8"?>
<svg xmlns="http://www.w3.org/2000/svg" viewBox="0 0 1082 1088.72">
<defs><style>.cls-1{opacity:.1;}.cls-2{fill:#fff;}</style></defs>
<g id="Layer_11" class="cls-1">
<rect class="cls-2" x="29.27" y="283.48" width="22.02" height="129.6"/>
</g>
<g id="Layer_10" class="cls-1">
<rect class="cls-2" x="55.53" y="334.31" width="128.75" height="25.41"/>
</g>
<g id="Layer_9" class="cls-1">
<rect class="cls-2" x="423.15" y="489.32" width="131.29" height="32.19"/>
</g>
<g id="Layer_8" class="cls-1">
<rect class="cls-2" x="690.82" y="843.39" width="132.14" height="24.56"/>
</g>
<g id="Layer_7" class="cls-1">
<rect class="cls-2" x="823.96" y="793.95" width="22.87" height="128.93"/>
</g>
<g id="Layer_6" class="cls-1">
<rect class="cls-2" x="27.57" y="887.43" width="128.75" height="20.33"/>
</g>
<g id="Layer_5" class="cls-1">
<rect class="cls-2" x="258.82" y="315.67" width="105.04" height="411.67"/>
</g>
<g id="Layer_4" class="cls-1">
<polygon class="cls-2" points="79.24 289.41 79.24 267.39 79.24 247.06 79.24 234.35 104.65 225.88 138.54 237.74 143.62 247.91 150.4 236.89 164.8 230.96 184.28 242.82 191.05 252.14 191.05 263.15 184.28 275.01 167.34 283.48 152.94 283.48 155.48 303.81 155.48 315.67 152.94 327.53 139.38 334.31 92.8 327.53 79.24 315.67 79.24 289.41"/>
</g>
<g id="Layer_3" class="cls-1">
<polygon class="cls-2" points="436.7 385.98 423.15 396.99 414.68 413.08 423.15 427.48 431.62 430.87 448.56 430.87 448.56 460.52 448.56 474.92 459.57 485.08 488.8 485.08 517.17 478.3 526.49 467.29 526.49 440.19 526.49 419.86 526.49 404.72 526.49 389.36 510.4 385.98 500.23 380.89 484.98 380.89 476.51 392.75 470.58 400.38 462.11 404.72 456.18 392.75 446.02 387.67 436.7 385.98"/>
</g>
<g id="Layer_2" class="cls-1">
<polygon class="cls-2" points="55.53 914.54 61.46 930.63 70.77 930.63 88.56 922.59 96.18 922.59 100.42 930.63 86.87 939.1 86.02 951.81 84.33 965.36 86.87 977.22 100.42 985.69 130.91 985.69 148.7 979.76 156.33 974.68 162.25 962.82 162.25 945.03 162.25 934.02 156.33 909.32 57.22 909.39 55.53 914.54"/>
</g>
</svg>