<?xml version="1.0" encoding="UTF-8"?>
<svg width="auto" height="65px" viewBox="0 0 316 70" version="1.1"
    xmlns="http://www.w3.org/2000/svg"
    xmlns:xlink="http://www.w3.org/1999/xlink">
    <title>GH-logo-HEU</title>
    <g id="Page-1" stroke="none" stroke-width="1" fill="none" fill-rule="evenodd">
        <g id="GH-logo-HEU" transform="translate(0.000000, 1.000000)" fill="#231F20" fill-rule="nonzero">
            <g id="g713" transform="translate(156.999996, 34.198401) scale(-1, 1) rotate(-180.000000) translate(-156.999996, -34.198401) translate(0.136641, 0.311544)">
                <g id="g715" transform="translate(0.301038, 0.060971)">
                    <path d="M105.316869,58.2608612 L113.134528,58.2608612 L113.134528,48.1734052 L110.526879,48.1734052 L110.136684,50.5200777 C109.146919,49.372543 107.715144,47.6782057 104.300668,47.6782057 C99.789626,47.6782057 95.6994451,50.911225 95.6994451,57.4772976 C95.6994451,62.5599923 98.5143524,67.3821336 104.796608,67.3821336 L104.846308,67.3821336 C110.580809,67.3821336 112.849019,63.653809 113.05522,61.0750283 L109.146919,61.0750283 C109.146919,61.8041337 107.816659,64.1494315 105.055681,64.1494315 C102.26721,64.1494315 99.6881117,62.221294 99.6881117,57.4260117 C99.6881117,52.317727 102.474468,50.9892642 105.134989,50.9892642 C105.993631,50.9892642 108.859295,51.3279624 109.66718,55.1071499 L105.316869,55.1071499 L105.316869,58.2608612" id="path717"></path>
                    <path d="M125.098413,56.4875331 C124.890097,58.7288845 123.458322,59.406281 122.283506,59.406281 C120.564107,59.406281 119.650478,58.3116184 119.44322,56.4875331 L125.098413,56.4875331 Z M128.694769,52.2396878 C127.73144,48.9033565 124.968348,47.8086939 122.596508,47.8086939 C118.686092,47.8086939 115.688248,49.6852282 115.688248,55.3929762 C115.688248,57.0600315 116.262438,62.4039141 122.33532,62.4039141 C125.071977,62.4039141 128.852327,61.1010413 128.852327,54.7667597 L128.852327,54.1166452 L119.338533,54.1166452 C119.44322,53.0724224 119.650478,50.7274418 122.596508,50.7274418 C123.612709,50.7274418 124.654288,51.2499233 124.940854,52.2396878 L128.694769,52.2396878" id="path719"></path>
                    <path d="M138.052062,59.2497798 C135.5491,59.2497798 134.924152,57.0088514 134.924152,54.7936187 C134.924152,52.7348873 135.837781,50.8063269 138.154634,50.8063269 C140.502152,50.8063269 141.153536,53.3602578 141.153536,55.0018288 C141.153536,57.1914714 140.37103,59.2497798 138.052062,59.2497798 L138.052062,59.2497798 Z M135.080653,60.2407075 L135.133526,60.2407075 C135.706658,61.1263141 136.802167,62.4039141 139.145456,62.4039141 C142.195115,62.4039141 144.908508,60.0585105 144.908508,55.2623822 C144.908508,51.4572874 143.185937,47.8086939 139.068263,47.8086939 C137.55718,47.8086939 135.940353,48.3560252 135.055275,49.9198743 L135.002403,49.9198743 L135.002403,48.1734052 L131.432483,48.1734052 L131.432483,66.8868284 L135.080653,66.8868284 L135.080653,60.2407075" id="path721"></path>
                    <path d="M147.694864,62.0387798 L151.187591,62.0387798 L151.187591,59.6413501 L151.239406,59.6413501 C151.996533,61.0485922 152.827682,62.4039141 155.045135,62.4039141 C155.279887,62.4039141 155.513581,62.377478 155.748333,62.351465 L155.748333,58.6515856 C155.43533,58.7036116 155.045135,58.7036116 154.705696,58.7036116 C151.86541,58.7036116 151.344092,56.9312352 151.344092,55.3929762 L151.344092,48.1734052 L147.694864,48.1734052 L147.694864,62.0387798" id="path723"></path>
                    <polyline id="path725" points="162.003095 48.1734052 158.093736 48.1734052 158.093736 51.9790287 162.003095 51.9790287 162.003095 48.1734052"></polyline>
                    <polyline id="path727" points="177.904889 56.5661009 177.904889 48.1734052 173.99553 48.1734052 173.99553 66.8868284 177.904889 66.8868284 177.904889 59.7970054 185.203345 59.7970054 185.203345 66.8868284 189.111646 66.8868284 189.111646 48.1734052 185.203345 48.1734052 185.203345 56.5661009 177.904889 56.5661009"></polyline>
                    <path d="M201.232032,56.4875331 C201.023716,58.7288845 199.590884,59.406281 198.419239,59.406281 C196.695611,59.406281 195.784097,58.3116184 195.576839,56.4875331 L201.232032,56.4875331 Z M204.828388,52.2396878 C203.866117,48.9033565 201.101967,47.8086939 198.731184,47.8086939 C194.819711,47.8086939 191.823981,49.6852282 191.823981,55.3929762 C191.823981,57.0600315 192.394999,62.4039141 198.468939,62.4039141 C201.206653,62.4039141 204.985946,61.1010413 204.985946,54.7667597 L204.985946,54.1166452 L195.471095,54.1166452 C195.576839,53.0724224 195.784097,50.7274418 198.731184,50.7274418 C199.748442,50.7274418 200.787907,51.2499233 201.074473,52.2396878 L204.828388,52.2396878" id="path729"></path>
                    <path d="M211.423646,62.0387798 L211.423646,48.1734052 L207.772303,48.1734052 L207.772303,62.0387798 L211.423646,62.0387798 Z M211.423646,63.681514 L207.772303,63.681514 L207.772303,67.0694484 L211.423646,67.0694484 L211.423646,63.681514" id="path731"></path>
                    <path d="M227.710348,48.1734052 L224.064292,48.1734052 L224.064292,56.5932771 C224.064292,57.6090547 224.010363,59.3282419 221.692453,59.3282419 C220.075626,59.3282419 218.823616,58.2331563 218.823616,56.1223988 L218.823616,48.1734052 L215.174388,48.1734052 L215.174388,62.0387798 L218.670287,62.0387798 L218.670287,60.0060614 L218.721044,60.0060614 C219.215927,60.8400649 220.258563,62.4039141 222.889476,62.4039141 C225.599696,62.4039141 227.710348,60.8143691 227.710348,57.7648157 L227.710348,48.1734052" id="path733"></path>
                    <path d="M239.674233,56.4875331 C239.465917,58.7288845 238.0352,59.406281 236.860383,59.406281 C235.140984,59.406281 234.226298,58.3116184 234.020097,56.4875331 L239.674233,56.4875331 Z M243.271646,52.2396878 C242.308318,48.9033565 239.546282,47.8086939 237.173385,47.8086939 C233.261912,47.8086939 230.265125,49.6852282 230.265125,55.3929762 C230.265125,57.0600315 230.839315,62.4039141 236.91114,62.4039141 C239.649912,62.4039141 243.428147,61.1010413 243.428147,54.7667597 L243.428147,54.1166452 L233.91541,54.1166452 C234.020097,53.0724224 234.226298,50.7274418 237.173385,50.7274418 C238.188529,50.7274418 239.231165,51.2499233 239.516674,52.2396878 L243.271646,52.2396878" id="path735"></path>
                    <path d="M265.945291,48.1734052 L262.29712,48.1734052 L262.29712,56.5932771 C262.29712,58.6515856 261.385606,59.3282419 260.317591,59.3282419 C258.491391,59.3282419 257.840007,58.12995 257.840007,56.4875331 L257.840007,48.1734052 L254.191837,48.1734052 L254.191837,56.5128059 C254.191837,57.6855077 254.191837,59.3282419 252.001877,59.3282419 C250.284593,59.3282419 249.735781,58.12995 249.735781,56.618127 L249.735781,48.1734052 L246.086553,48.1734052 L246.086553,62.0387798 L249.57928,62.0387798 L249.57928,60.0060614 L249.630037,60.0060614 C250.100599,60.91895 251.116799,62.4039141 253.567947,62.4039141 C255.573912,62.4039141 256.485426,61.6743857 257.425491,60.1885757 C257.893937,60.865655 258.910137,62.4039141 261.125476,62.4039141 C263.834639,62.4039141 265.945291,60.8143691 265.945291,57.7648157 L265.945291,48.1734052" id="path737"></path>
                    <path d="M277.207035,54.9236839 C276.84116,54.6370118 276.241591,54.4032116 274.729451,54.1686713 C273.373812,53.9336022 272.25504,53.5953269 272.25504,52.0826579 C272.25504,50.8063269 273.243747,50.4147566 273.946945,50.4147566 C275.563772,50.4147566 277.207035,51.4572874 277.207035,53.1520477 L277.207035,54.9236839 Z M280.775897,50.8839431 C280.775897,49.2424778 281.142829,48.8773435 281.583782,48.7220054 L281.583782,48.1734052 L277.649045,48.1734052 C277.438614,48.8252117 277.387857,49.0338447 277.310664,49.8162451 C276.476343,48.9553826 275.304699,47.8086939 272.828173,47.8086939 C270.740785,47.8086939 268.604754,48.9826646 268.604754,51.8476946 C268.604754,54.5598186 270.327325,55.9403075 272.644178,56.2794287 L275.930704,56.773465 C276.501722,56.8527731 277.207035,57.0873135 277.207035,57.8692909 C277.207035,59.406281 275.746709,59.4847431 274.806644,59.4847431 C272.984674,59.4847431 272.671671,58.3649134 272.566985,57.5566057 L269.049937,57.5566057 C269.466568,61.8041337 272.409426,62.4039141 275.252884,62.4039141 C277.207035,62.4039141 280.775897,61.8041337 280.775897,58.3913494 L280.775897,50.8839431" id="path739"></path>
                    <path d="M296.83102,48.1734052 L293.18285,48.1734052 L293.18285,56.5932771 C293.18285,57.6090547 293.132092,59.3282419 290.81101,59.3282419 C289.194183,59.3282419 287.944288,58.2331563 287.944288,56.1223988 L287.944288,48.1734052 L284.29506,48.1734052 L284.29506,62.0387798 L287.788844,62.0387798 L287.788844,60.0060614 L287.840659,60.0060614 C288.336599,60.8400649 289.37712,62.4039141 292.010148,62.4039141 C294.720368,62.4039141 296.83102,60.8143691 296.83102,57.7648157 L296.83102,48.1734052" id="path741"></path>
                    <path d="M313.017266,48.1734052 L309.368038,48.1734052 L309.368038,56.5932771 C309.368038,57.6090547 309.316223,59.3282419 306.998313,59.3282419 C305.382543,59.3282419 304.130534,58.2331563 304.130534,56.1223988 L304.130534,48.1734052 L300.481306,48.1734052 L300.481306,62.0387798 L303.97509,62.0387798 L303.97509,60.0060614 L304.02479,60.0060614 C304.522844,60.8400649 305.561251,62.4039141 308.197451,62.4039141 C310.905556,62.4039141 313.017266,60.8143691 313.017266,57.7648157 L313.017266,48.1734052" id="path743"></path>
                    <path d="M101.059612,35.6014921 L105.993631,35.6014921 L105.993631,29.588884 L105.007039,29.588884 L104.647509,31.0462489 C103.879807,29.9808773 102.471296,29.2902628 100.936949,29.2902628 C99.0113496,29.2902628 98.0702273,29.9957872 97.4918072,30.5591917 C95.7671214,32.1887079 95.7216514,34.1135673 95.7216514,35.304034 C95.7216514,38.0426998 97.3807759,41.1286292 101.045866,41.1286292 C103.144885,41.1286292 105.4776,39.9385854 105.805406,37.4180696 L104.333449,37.4180696 C103.849141,39.374758 102.204821,39.7816612 100.966558,39.7816612 C98.9468457,39.7816612 97.2866637,38.16991 97.2866637,35.2264179 C97.2866637,32.9392793 98.0385041,30.5910206 101.028947,30.5910206 C101.59362,30.5910206 102.501961,30.6538326 103.330995,31.311032 C104.318645,32.0945956 104.568201,33.0966265 104.568201,34.3020032 L101.059612,34.3020032 L101.059612,35.6014921" id="path745"></path>
                    <path d="M113.963562,34.3329862 C113.883196,35.6014921 113.351304,36.7762031 111.67526,36.7762031 C110.407389,36.7762031 109.405992,35.6014921 109.405992,34.3329862 L113.963562,34.3329862 Z M115.277961,32.1565617 C115.231433,31.7645684 114.856042,30.6055076 113.81975,29.9177481 C113.445416,29.66576 112.912466,29.3539207 111.598067,29.3539207 C109.296018,29.3539207 107.932977,31.0920361 107.932977,33.4564736 C107.932977,35.9930624 109.156436,38.013303 111.863484,38.013303 C114.228979,38.013303 115.386877,36.1334906 115.386877,33.2370546 L109.405992,33.2370546 C109.405992,31.5307682 110.20436,30.5435415 111.785234,30.5435415 C113.084828,30.5435415 113.853588,31.5455724 113.899058,32.1565617 L115.277961,32.1565617" id="path747"></path>
                    <path d="M120.427697,30.5435415 C121.304315,30.5435415 122.667357,31.1230191 122.667357,33.2985977 C122.667357,34.6307615 122.446351,36.7762031 120.458363,36.7762031 C118.328677,36.7762031 118.218703,34.7559625 118.218703,33.7067698 C118.218703,31.9061597 118.924016,30.5435415 120.427697,30.5435415 Z M123.981755,30.2622623 C123.981755,29.0874456 123.966951,26.1427904 120.177084,26.1427904 C119.206353,26.1427904 117.311419,26.4104286 117.044944,28.5864302 L118.423847,28.5864302 C118.673403,27.2865183 119.942332,27.2865183 120.270138,27.2865183 C122.651495,27.2865183 122.604968,29.1964678 122.604968,30.1684673 L122.604968,30.5125585 L122.573244,30.5125585 L122.573244,30.4501695 C122.2116,29.869846 121.49254,29.3539207 120.395974,29.3539207 C117.609617,29.3539207 116.794331,31.9685487 116.794331,33.926506 C116.794331,36.2284488 118.030479,38.013303 120.207749,38.013303 C121.695569,38.013303 122.323688,37.0888883 122.651495,36.6188559 L122.682161,36.6188559 L122.682161,37.7783397 L123.981755,37.7783397 L123.981755,30.2622623" id="path749"></path>
                    <path d="M127.614064,29.588884 L126.236219,29.588884 L126.236219,37.7783397 L127.533699,37.7783397 L127.533699,36.4143468 L127.565422,36.4143468 C128.115291,37.3705905 128.835408,38.013303 129.868528,38.013303 C130.039833,38.013303 130.120199,37.9972299 130.228058,37.9654009 L130.228058,36.5412397 L129.713084,36.5412397 C128.428294,36.5412397 127.614064,35.5391031 127.614064,34.3482134 L127.614064,29.588884" id="path751"></path>
                    <path d="M136.741893,39.0464226 L135.318578,39.0464226 L135.318578,40.6441098 L136.741893,40.6441098 L136.741893,39.0464226 Z M134.204035,39.0464226 L132.78072,39.0464226 L132.78072,40.6441098 L134.204035,40.6441098 L134.204035,39.0464226 Z M136.757755,29.588884 L136.757755,30.7781876 L136.726031,30.8111798 C136.147611,29.8549361 135.442298,29.3539207 134.126842,29.3539207 C132.921359,29.3539207 131.464206,29.9333982 131.464206,31.8900866 L131.464206,37.7783397 L132.843109,37.7783397 L132.843109,32.3440459 C132.843109,30.9979238 133.53256,30.5435415 134.42504,30.5435415 C136.162415,30.5435415 136.677389,32.0784168 136.677389,33.2680376 L136.677389,37.7783397 L138.056292,37.7783397 L138.056292,29.588884 L136.757755,29.588884" id="path753"></path>
                    <path d="M146.951483,29.588884 L145.574695,29.588884 L145.574695,34.6307615 C145.574695,36.0558744 145.166523,36.7762031 143.819344,36.7762031 C143.036838,36.7762031 141.65582,36.2747647 141.65582,34.051707 L141.65582,29.588884 L140.28009,29.588884 L140.28009,37.7783397 L141.580742,37.7783397 L141.580742,36.6188559 L141.611408,36.6188559 C141.908548,37.0574823 142.675193,38.013303 144.085819,38.013303 C145.355805,38.013303 146.951483,37.4962145 146.951483,35.16276 L146.951483,29.588884" id="path755"></path>
                    <path d="M152.306363,30.5435415 C153.180867,30.5435415 154.544965,31.1230191 154.544965,33.2985977 C154.544965,34.6307615 154.326075,36.7762031 152.337029,36.7762031 C150.207343,36.7762031 150.098427,34.7559625 150.098427,33.7067698 C150.098427,31.9061597 150.802683,30.5435415 152.306363,30.5435415 Z M155.937615,29.588884 L154.63802,29.588884 L154.63802,30.7162216 L154.606297,30.7162216 C154.012015,29.6046399 153.07195,29.3539207 152.273583,29.3539207 C149.487226,29.3539207 148.671939,31.9685487 148.671939,33.926506 C148.671939,36.2284488 149.91126,38.013303 152.086416,38.013303 C153.574235,38.013303 154.20024,37.0888883 154.529104,36.6188559 L154.560827,36.728301 L154.560827,40.8321228 L155.937615,40.8321228 L155.937615,29.588884" id="path757"></path>
                    <path d="M163.640013,34.3329862 C163.56282,35.6014921 163.028812,36.7762031 161.354884,36.7762031 C160.085955,36.7762031 159.082444,35.6014921 159.082444,34.3329862 L163.640013,34.3329862 Z M164.95547,32.1565617 C164.908942,31.7645684 164.533551,30.6055076 163.500431,29.9177481 C163.122925,29.66576 162.592089,29.3539207 161.276633,29.3539207 C158.973527,29.3539207 157.611544,31.0920361 157.611544,33.4564736 C157.611544,35.9930624 158.832888,38.013303 161.543108,38.013303 C163.907546,38.013303 165.066501,36.1334906 165.066501,33.2370546 L159.082444,33.2370546 C159.082444,31.5307682 159.881869,30.5435415 161.4638,30.5435415 C162.763395,30.5435415 163.531097,31.5455724 163.578682,32.1565617 L164.95547,32.1565617" id="path759"></path>
                    <path d="M168.556055,36.634506 L168.556055,31.311032 C168.556055,30.6690598 169.104867,30.6690598 169.386146,30.6690598 L169.872569,30.6690598 L169.872569,29.588884 C169.371342,29.540982 168.980089,29.4790159 168.839449,29.4790159 C167.474293,29.4790159 167.17821,30.2465064 167.17821,31.2328872 L167.17821,36.634506 L166.065782,36.634506 L166.065782,37.7783397 L167.17821,37.7783397 L167.17821,40.0646323 L168.556055,40.0646323 L168.556055,37.7783397 L169.872569,37.7783397 L169.872569,36.634506 L168.556055,36.634506" id="path761"></path>
                    <path d="M180.922825,29.588884 L179.450867,29.588884 L179.450867,37.4019965 L176.881286,37.4019965 L176.881286,38.4999372 C178.667304,38.6221774 179.403282,38.7957034 179.840005,40.5970537 L180.922825,40.5970537 L180.922825,29.588884" id="path763"></path>
                    <path d="M189.660458,37.7146817 C189.660458,38.3888002 189.223735,39.3595308 187.61008,39.3595308 C186.137065,39.3595308 185.777535,38.3417441 185.777535,37.6370656 C185.777535,36.5882958 186.701738,35.9451604 187.703135,35.9451604 C188.893813,35.9451604 189.660458,36.7126509 189.660458,37.7146817 L189.660458,37.7146817 Z M185.449729,32.7195431 C185.449729,31.8426075 185.888567,30.5273627 187.797247,30.5273627 C188.798643,30.5273627 190.005183,30.8880557 190.005183,32.610521 C190.005183,34.0979171 188.974179,34.7559625 187.718996,34.7559625 C186.168788,34.7559625 185.449729,33.7377528 185.449729,32.7195431 Z M189.676319,35.4448852 C191.165196,34.8183515 191.477141,33.5973247 191.477141,32.7678682 C191.477141,30.9979238 190.350967,29.2902628 187.75072,29.2902628 C187.141634,29.2902628 185.980564,29.4468697 185.105003,30.1374843 C183.976714,31.03007 183.976714,32.2196909 183.976714,32.7525353 C183.976714,34.0979171 184.680969,34.9595199 185.839924,35.429235 C184.900917,35.7893994 184.352105,36.5412397 184.352105,37.5734076 C184.352105,38.7172413 185.058476,40.5970537 187.687273,40.5970537 C190.132076,40.5970537 191.085888,39.0464226 191.085888,37.7621608 C191.085888,36.1809697 190.161685,35.6956044 189.676319,35.4448852" id="path765"></path>
                    <path d="M192.822206,40.3612444 L200.434721,40.3612444 L200.434721,39.1567137 C199.337098,38.013303 196.706185,34.5048203 195.907818,29.588884 L194.389333,29.588884 C194.763667,32.610521 196.769632,36.5560439 198.884513,39.0154396 L192.822206,39.0154396 L192.822206,40.3612444" id="path767"></path>
                    <path d="M207.541781,37.0108492 C207.541781,38.263705 206.902029,39.3595308 205.31904,39.3595308 C204.035307,39.3595308 203.188297,38.3578172 203.188297,36.8852252 C203.188297,34.7711897 204.504811,34.5048203 205.429014,34.5048203 C206.147016,34.5048203 207.541781,34.8348476 207.541781,37.0108492 Z M201.764982,36.822519 C201.764982,38.8275324 202.985269,40.5970537 205.303179,40.5970537 C208.81071,40.5970537 209.154378,37.2769013 209.154378,35.4912011 C209.154378,34.3168074 208.952407,29.2902628 205.162539,29.2902628 C202.578154,29.2902628 201.888703,31.1704982 201.888703,32.2341778 L203.268663,32.2341778 C203.345856,31.1230191 204.003584,30.4336735 205.131873,30.4336735 C206.635554,30.4336735 207.432864,31.7021794 207.77759,34.5531454 L207.744809,34.5832824 C207.337695,33.7377528 206.243244,33.2680376 205.224928,33.2680376 C203.188297,33.2680376 201.764982,34.6307615 201.764982,36.822519" id="path769"></path>
                    <path d="M26.4583307,57.3421567 L35.9731826,57.3421567 C37.3441545,57.3421567 38.4516122,58.4500374 38.4516122,59.8151934 L38.4516122,64.4085045 C38.4516122,65.7756696 37.3441545,66.8827043 35.9731826,66.8827043 L2.57053271,66.8827043 C1.20410778,66.8827043 0.0966500844,65.7756696 0.0966500844,64.4085045 L0.0966500844,59.8151934 C0.0966500844,58.4500374 1.20410778,57.3421567 2.57053271,57.3421567 L11.9718154,57.3421567 C13.3390863,57.3421567 14.4427372,56.2331128 14.4427372,54.8696487 L14.4427372,12.1064276 C14.4427372,10.7449727 13.3390863,9.63465989 11.9718154,9.63465989 L2.57053271,9.63465989 C1.20410778,9.63465989 0.0966500844,8.52730794 0.0966500844,7.16003705 L0.0966500844,2.56556274 C0.0966500844,1.20156992 1.20410778,0.0942179707 2.57053271,0.0942179707 L35.9731826,0.0942179707 C37.3441545,0.0942179707 38.4516122,1.20156992 38.4516122,2.56556274 L38.4516122,7.16003705 C38.4516122,8.52730794 37.3441545,9.63465989 35.9731826,9.63465989 L26.4583307,9.63465989 C25.0947609,9.63465989 23.9874089,10.7449727 23.9874089,12.1064276 L23.9874089,54.8696487 C23.9874089,56.2331128 25.0947609,57.3421567 26.4583307,57.3421567 L26.4583307,57.3421567" id="path771"></path>
                    <path d="M36.0021564,47.8012918 C34.6324534,47.8012918 33.5254187,46.6942571 33.5254187,45.3269862 L33.5254187,21.6519453 C33.5254187,20.2863663 34.6324534,19.1756305 36.0021564,19.1756305 L50.1326314,19.1756305 C51.4997965,19.1756305 52.6068313,20.2863663 52.6068313,21.6519453 L52.6068313,26.2468426 C52.6068313,27.6141134 51.4997965,28.7186103 50.1326314,28.7186103 L45.5410122,28.7186103 C44.1762792,28.7186103 43.0688215,29.826068 43.0688215,31.1923872 L43.0688215,35.7861213 C43.0688215,37.1529692 44.1762792,38.258735 45.5410122,38.258735 L59.6760342,38.258735 C61.0403442,38.258735 62.149811,37.1529692 62.149811,35.7861213 L62.149811,12.1064276 C62.149811,10.7449727 61.0403442,9.63465989 59.6760342,9.63465989 L50.2750687,9.63465989 C48.9116046,9.63465989 47.8033009,8.52730794 47.8033009,7.16003705 L47.8033009,2.56556274 C47.8033009,1.20156992 48.9116046,0.0942179707 50.2750687,0.0942179707 L83.681631,0.0942179707 C85.0446722,0.0942179707 86.1518126,1.20156992 86.1518126,2.56556274 L86.1518126,7.16003705 C86.1518126,8.52730794 85.0446722,9.63465989 83.681631,9.63465989 L74.1625494,9.63465989 C72.7984509,9.63465989 71.6913104,10.7449727 71.6913104,12.1064276 L71.6913104,54.8696487 C71.6913104,56.2331128 72.7984509,57.3421567 74.1625494,57.3421567 L83.681631,57.3421567 C85.0446722,57.3421567 86.1518126,58.4500374 86.1518126,59.8151934 L86.1518126,64.4085045 C86.1518126,65.7756696 85.0446722,66.8827043 83.681631,66.8827043 L50.2750687,66.8827043 C48.9116046,66.8827043 47.8033009,65.7756696 47.8033009,64.4085045 L47.8033009,59.8151934 C47.8033009,58.4500374 48.9116046,57.3421567 50.2750687,57.3421567 L59.6760342,57.3421567 C61.0403442,57.3421567 62.149811,56.2331128 62.149811,54.8696487 L62.149811,50.2739055 C62.149811,48.9087495 61.0288181,47.8012918 59.6648253,47.8012918 L36.0021564,47.8012918 L36.0021564,47.8012918" id="path773"></path>
                    <line x1="50.4204668" y1="57.3364465" x2="59.8045132" y2="57.3364465" id="path775"></line>
                </g>
            </g>
        </g>
    </g>
</svg>