<svg width="442" height="417" viewBox="0 0 442 417" fill="none" xmlns="http://www.w3.org/2000/svg">
<g clip-path="url(#clip0_3_40)">
<path d="M135.673 49.7202H184.513C191.527 49.7202 197.208 43.9148 197.208 36.7536V12.6689C197.208 5.50777 191.527 -0.293457 184.513 -0.293457H13.0917C6.08616 -0.293457 0.396973 5.50777 0.396973 12.6689V36.7529C0.396973 43.9141 6.08616 49.7195 13.0917 49.7195H61.3272C68.341 49.7195 74.0218 55.5249 74.0218 62.686V286.836C74.0218 293.993 68.341 299.799 61.3272 299.799H13.0917C6.08616 299.799 0.396973 305.612 0.396973 312.769V336.845C0.396973 344.01 6.08616 349.816 13.0917 349.816H184.513C191.527 349.816 197.208 344.01 197.208 336.845V312.769C197.208 305.612 191.527 299.799 184.513 299.799H135.673C128.668 299.799 122.979 293.993 122.979 286.836V62.6867C122.979 55.5249 128.668 49.7202 135.673 49.7202Z" fill="black"/>
<path d="M184.638 99.7373C177.624 99.7373 171.943 105.543 171.943 112.704V236.81C171.943 243.976 177.624 249.78 184.638 249.78H257.173C264.178 249.78 269.859 243.976 269.859 236.81V212.735C269.859 205.578 264.179 199.772 257.173 199.772H233.589C226.584 199.772 220.902 193.966 220.902 186.801V162.717C220.902 155.556 226.583 149.75 233.589 149.75H306.129C313.134 149.75 318.816 155.556 318.816 162.717V286.836C318.816 293.993 313.135 299.799 306.129 299.799H257.885C250.879 299.799 245.198 305.604 245.198 312.769V336.845C245.198 344.01 250.879 349.816 257.885 349.816H429.314C436.319 349.816 442 344.01 442 336.845V312.769C442 305.604 436.32 299.799 429.314 299.799H380.473C373.469 299.799 367.771 293.993 367.771 286.836V62.6867C367.771 55.5256 373.469 49.7202 380.473 49.7202H429.314C436.319 49.7202 442 43.9148 442 36.7536V12.6689C442 5.50777 436.32 -0.293457 429.314 -0.293457H257.885C250.879 -0.293457 245.198 5.50777 245.198 12.6689V36.7529C245.198 43.9141 250.879 49.7195 257.885 49.7195H306.129C313.134 49.7195 318.816 55.5249 318.816 62.686V86.77C318.816 93.9312 313.068 99.7366 306.063 99.7366H184.638V99.7373Z" fill="black"/>
<path d="M20.1228 394.136H36.4442V415.649H31.0038L30.1835 410.64C28.1134 413.095 25.1234 416.711 17.9939 416.711C8.58715 416.711 0.0408936 409.811 0.0408936 395.811C0.0408936 384.906 5.96979 374.63 19.1363 374.68C31.1104 374.68 35.8471 382.625 36.2773 388.132H28.1134C28.1134 386.581 25.3395 381.581 19.5762 381.581C13.7547 381.581 8.37239 385.685 8.37239 395.92C8.37239 406.809 14.1939 409.645 19.7425 409.645C21.5305 409.645 27.5183 408.924 29.2074 400.863H20.1228V394.136Z" fill="black"/>
<path d="M60.5491 406.975C59.9533 409.098 57.7752 410.193 55.6469 410.193C49.5026 410.193 49.0634 405.2 48.8486 402.977H68.706V401.584C68.706 388.074 60.8228 385.296 55.1003 385.296C42.4306 385.296 41.23 396.691 41.23 400.249C41.23 412.423 47.4817 416.429 55.6469 416.429C60.5983 416.429 66.3706 414.09 68.3832 406.975H60.5491ZM49.0634 397.918C49.5026 394.02 51.4071 391.689 55.0006 391.689C57.4433 391.689 60.4417 393.132 60.872 397.918H49.0634Z" fill="black"/>
<path d="M81.1687 375.733H73.55V415.648H81.0031V411.925H81.1188C82.9658 415.251 86.3355 416.428 89.4911 416.428C98.0949 416.428 101.68 408.641 101.68 400.53C101.68 390.296 96.0248 385.295 89.6567 385.295C84.7635 385.295 82.478 388.015 81.2767 389.906H81.1694L81.1687 375.733ZM93.8467 401.085C93.8467 404.586 92.4882 410.034 87.595 410.034C82.742 410.034 80.8458 405.928 80.8458 401.525C80.8458 396.806 82.1462 392.02 87.3712 392.02C92.2145 392.021 93.8467 396.408 93.8467 401.085Z" fill="black"/>
<path d="M106.963 386.075H114.251V391.192H114.358C115.94 388.19 117.679 385.296 122.3 385.296C122.788 385.296 123.285 385.354 123.774 385.411V393.298C123.12 393.191 122.3 393.191 121.596 393.191C115.666 393.191 114.574 396.973 114.574 400.249V415.649H106.963V386.075Z" fill="black"/>
<path d="M130.158 407.53H121.993V415.649H130.158V407.53Z" fill="black"/>
<path d="M160.813 397.752V415.649H152.649V375.733H160.813V390.852H176.05V375.733H184.214V415.649H176.05V397.752H160.813Z" fill="black"/>
<path d="M208.643 406.975C208.047 409.098 205.86 410.193 203.741 410.193C197.597 410.193 197.158 405.2 196.943 402.977H216.795V401.584C216.795 388.074 208.916 385.296 203.203 385.296C190.525 385.296 189.324 396.691 189.324 400.249C189.324 412.423 195.584 416.429 203.742 416.429C208.693 416.429 214.466 414.09 216.482 406.975H208.643ZM197.158 397.918C197.597 394.02 199.501 391.689 203.087 391.689C205.538 391.689 208.528 393.132 208.966 397.918H197.158Z" fill="black"/>
<path d="M229.697 382.575H222.079V375.352H229.697V382.575ZM229.697 415.649H222.079V386.075H229.697V415.649Z" fill="black"/>
<path d="M263.168 415.649H255.549V397.694C255.549 395.53 255.434 391.856 250.598 391.856C247.219 391.856 244.603 394.186 244.603 398.697V415.649H236.985V386.075H244.272V390.413H244.388C245.431 388.629 247.601 385.304 253.099 385.304C258.763 385.304 263.169 388.679 263.169 395.19V415.649H263.168Z" fill="black"/>
<path d="M287.265 406.975C286.669 409.098 284.482 410.193 282.363 410.193C276.218 410.193 275.788 405.2 275.572 402.977H295.43V401.584C295.43 388.074 287.53 385.296 281.817 385.296C269.147 385.296 267.954 396.691 267.954 400.249C267.954 412.423 274.214 416.429 282.363 416.429C287.315 416.429 293.095 414.09 295.099 406.975H287.265ZM275.788 397.918C276.218 394.02 278.123 391.689 281.718 391.689C284.169 391.689 287.15 393.132 287.597 397.918H275.788Z" fill="black"/>
<path d="M341.902 415.649H334.284V397.694C334.284 393.298 332.363 391.856 330.143 391.856C326.334 391.856 324.976 394.418 324.976 397.918V415.649H317.357V397.86C317.357 395.363 317.357 391.856 312.786 391.856C309.192 391.856 308.05 394.418 308.05 397.636V415.649H300.431V386.075H307.719V390.413H307.835C308.812 388.464 310.932 385.304 316.049 385.304C320.239 385.304 322.144 386.855 324.098 390.023C325.075 388.58 327.195 385.304 331.832 385.304C337.479 385.304 341.902 388.679 341.902 395.19V415.649H341.902Z" fill="black"/>
<path d="M372.309 393.854C372.309 386.581 364.856 385.304 360.766 385.304C354.836 385.304 348.692 386.581 347.83 395.638H355.168C355.383 393.921 356.046 391.524 359.854 391.524C361.809 391.524 364.856 391.698 364.856 394.966C364.856 396.641 363.383 397.139 362.19 397.305L355.334 398.359C350.498 399.079 346.904 402.032 346.904 407.813C346.904 413.926 351.36 416.43 355.715 416.43C360.882 416.43 363.333 413.983 365.072 412.15C365.237 413.817 365.337 414.257 365.784 415.65H373.999V414.489C373.071 414.149 372.309 413.361 372.309 409.869L372.309 393.854ZM364.856 405.034C364.856 408.641 361.428 410.864 358.049 410.864C356.591 410.864 354.521 410.035 354.521 407.306C354.521 404.088 356.857 403.358 359.689 402.861C362.836 402.363 364.094 401.865 364.856 401.252V405.034Z" fill="black"/>
<path d="M405.283 415.649H397.665V397.694C397.665 395.53 397.549 391.856 392.713 391.856C389.335 391.856 386.734 394.186 386.734 398.697V415.649H379.115V386.075H386.403V390.413H386.519C387.545 388.629 389.715 385.304 395.214 385.304C400.878 385.304 405.283 388.679 405.283 395.19V415.649Z" fill="black"/>
<path d="M438.522 415.649H430.904V397.694C430.904 395.53 430.804 391.856 425.952 391.856C422.589 391.856 419.973 394.186 419.973 398.697V415.649H412.355V386.075H419.642V390.413H419.758C420.785 388.629 422.955 385.304 428.453 385.304C434.117 385.304 438.522 388.679 438.522 395.19L438.522 415.649Z" fill="black"/>
</g>
<defs>
<clipPath id="clip0_3_40">
<rect width="442" height="417" fill="white"/>
</clipPath>
</defs>
</svg>
