<?xml version="1.0" encoding="utf-8"?>
<!-- Generator: Adobe Illustrator 27.0.1, SVG Export Plug-In . SVG Version: 6.00 Build 0)  -->
<svg version="1.1" id="Layer_1" xmlns="http://www.w3.org/2000/svg" xmlns:xlink="http://www.w3.org/1999/xlink" x="0px" y="0px"
	viewBox="0 0 786.9 495.3" style="enable-background:new 0 0 786.9 495.3;" xml:space="preserve">
<a>
	<rect x="52" y="61" fill='#9CA3AF' width="14.1" height="145.2"/>
</a>
<rect x="82.8" y="344.5" fill='#9CA3AF' width="145.2" height="22.8"/>
<rect x="90.1" y="374.6" fill='#9CA3AF' stroke-width='4' width="136.9" height="47.7"/>
<path fill='#9CA3AF' stroke-width='4' d="M107.2,181.2l-3.8-13.8l5.1-31.8l-8.1-12.3l8.5-17.1L124,75.8l16.1-3.8l19.9,2.8l33.3,23.6l17.2,20.4l-8.5,17.1
	l-18.4,37.1l-13.7,27.6L149,202l-20.4-1.8L107.2,181.2z"/>
<rect x="488" y="185.5" fill='#9CA3AF' width="243" height="122"/>
<rect x="365.8" y="61" fill='#9CA3AF' stroke-width='6' width="368.6" height="368.6"/>
<a>
	<rect x="70" y="61" fill='#9CA3AF' width="14.1" height="145.2"/>
</a>
<a>
	<rect x="51" y="279.1" fill='#9CA3AF' width="14.1" height="145.2"/>
</a>
<a>
	<rect x="69" y="279.1" fill='#9CA3AF' width="14.1" height="145.2"/>
</a>
</svg>
