<svg width="572" height="594" viewBox="0 0 572 594" fill="none" xmlns="http://www.w3.org/2000/svg">
<path d="M27.5 572V28.5H224.5L544 572H27.5Z" stroke="#9CA3AF" stroke-width="10"/>
<a href='/screen_1'><rect x="45" y="124" width="11" height="70" fill="#9CA3AF"/></a>
<rect x="126" y="153" width="11" height="70" transform="rotate(90 126 153)" fill="#9CA3AF"/>
<rect x="329" y="363" width="11" height="70" transform="rotate(90 329 363)" fill="#9CA3AF"/>
<rect x="417" y="484" width="11" height="70" transform="rotate(90 417 484)" fill="#9CA3AF"/>
<rect x="115" y="483" width="11" height="70" transform="rotate(90 115 483)" fill="#9CA3AF"/>
<rect x="161" y="146" width="62" height="244" fill="#9CA3AF"/>
<rect x="375" y="414" width="11" height="70" fill="#9CA3AF"/>
<path d="M95 77.5L99.5 82.5L104 97L110 100.5V109.5V125.5L104 130.5L95 133.5L76 130.5L64.5 125.5V116.5V97V82.5L73 77.5L82 74L95 77.5Z" stroke="#9CA3AF" stroke-width="3"/>
<path d="M293.293 288.014L289.085 293.278L285.002 308.442L279.35 312.161L279.468 321.539L279.679 338.211L285.444 343.349L294.032 346.367L312.038 343.012L322.894 337.664L322.776 328.286L322.518 307.967L322.327 292.857L314.188 287.75L305.594 284.211L293.293 288.014Z" stroke="#9CA3AF" stroke-width="3"/>
<path d="M125 97H116.5L108.5 92.5L104 81.5L110 75.5L120.5 78L130 89L125 97Z" stroke="#9CA3AF" stroke-width="3"/>
<path d="M281.418 289.397L283.464 297.801L281.418 306L270.129 316.758L260.739 310.142L261.036 299.074L271.176 286.655L281.418 289.397Z" stroke="#9CA3AF" stroke-width="3"/>
<rect x="59.5" y="167.5" width="66" height="23" stroke="#9CA3AF" stroke-width="3"/>
<rect x="260.5" y="377.5" width="66" height="23" stroke="#9CA3AF" stroke-width="3"/>
<rect x="372.5" y="415.5" width="66" height="23" transform="rotate(90 372.5 415.5)" stroke="#9CA3AF" stroke-width="3"/>
<path d="M57 531.5L49.5 519.5V508.5L60.5 501L70.5 515V531.5L60.5 536L57 531.5Z" stroke="#9CA3AF" stroke-width="3"/>
<path d="M87 551L77 541V531.5V513L90.5 507L113.5 508.5L119.5 519.5L109.5 541L102 551H87Z" stroke="#9CA3AF" stroke-width="3"/>
<circle cx="361" cy="383" r="21.5" stroke="#9CA3AF" stroke-width="3"/>
</svg>
